<svg width="50" height="50" viewBox="0 0 50 50" fill="none" xmlns="http://www.w3.org/2000/svg">
<circle cx="25" cy="25" r="25" fill="#EFEFEF"/>
<path d="M36.3132 27.8901L25.3331 35.87L14.3529 27.8901C14.2057 27.7818 14.0966 27.6298 14.041 27.4557C13.9854 27.2816 13.9864 27.0944 14.0436 26.9209L15.3015 23.0238L17.8171 15.281C17.8415 15.2179 17.8803 15.1614 17.9305 15.116C18.0122 15.0414 18.1189 15 18.2295 15C18.3401 15 18.4468 15.0414 18.5285 15.116C18.5815 15.1672 18.6205 15.2311 18.6419 15.3016L21.1575 23.0238H29.5086L32.0243 15.281C32.0487 15.2179 32.0875 15.1614 32.1377 15.116C32.2194 15.0414 32.326 15 32.4367 15C32.5473 15 32.6539 15.0414 32.7356 15.116C32.7886 15.1672 32.8277 15.2311 32.8491 15.3016L35.3647 23.0444L36.6741 26.9209C36.7261 27.0998 36.7192 27.2907 36.6542 27.4653C36.5892 27.6399 36.4696 27.7888 36.3132 27.8901Z" stroke="#292929" stroke-width="2" stroke-linecap="round" stroke-linejoin="round"/>
</svg>
